# xmcd
#
# Track frame offsets:
#	150
#	14694
#	34623
#	47575
#	63128
#	76674
#	92878
#	110804
#	126318
#	143191
#	165910
#	179712
#	190978
#	204273
#
# Disc length: 2985 seconds
# Revision: 0
# Processed by: cddbd v1.5.2PL0 Copyright (c) Steve Scherf et al.
# Submitted via: dBpowerAMP V12.0
#
DISCID=bc0ba70e
DTITLE=Kathy Kallick Band - Tme
DYEAR=2012
DGENRE=Country
TTITLE0=Time
TTITLE1=Fare Thee Well
TTITLE2=Thinkin' of Home
TTITLE3=North Carolina Breakdown
TTITLE4=Lord Protect My Soul
TTITLE5=Lulu and Jack
TTITLE6=Old Black Choo-Choo
TTITLE7=Shuckin' the Acorns
TTITLE8=Bird
TTITLE9=Precious Memories
TTITLE10=I'm Lonesome Without You
TTITLE11=Old Red Mandolin
TTITLE12=Dark Hollow
TTITLE13=Long Time Travelin'
EXTD=
EXTT0=
EXTT1=
EXTT2=
EXTT3=
EXTT4=
EXTT5=
EXTT6=
EXTT7=
EXTT8=
EXTT9=
EXTT10=
EXTT11=
EXTT12=
EXTT13=
PLAYORDER=
